<svg version="1.1" viewBox="0 0 18.051 15.714" xmlns="http://www.w3.org/2000/svg">
	<path d="m1.2982 4.351c-1.0385 0.39026-1.5589 1.5373-1.1686 2.5757l0.70357 1.8722c1.0348-0.38889 2.1868 0.13378 2.5757 1.1686 0.38889 1.0348-0.13378 2.1868-1.1686 2.5757l0.70357 1.8722c0.39026 1.0385 1.5373 1.5589 2.5757 1.1686l11.233-4.2214c1.0385-0.39026 1.5589-1.5373 1.1686-2.5757l-0.70357-1.8722c-1.0348 0.38889-2.1868-0.13378-2.5757-1.1686-0.38889-1.0348 0.13378-2.1868 1.1686-2.5757l-0.70357-1.8722c-0.39026-1.0385-1.5373-1.5589-2.5757-1.1686z"/>
</svg>
