<?xml version="1.0" standalone="no"?>
<!DOCTYPE svg PUBLIC "-//W3C//DTD SVG 20010904//EN"
 "http://www.w3.org/TR/2001/REC-SVG-20010904/DTD/svg10.dtd">
<svg version="1.0" xmlns="http://www.w3.org/2000/svg"
 width="700.000000pt" height="700.000000pt" viewBox="0 0 700.000000 700.000000"
 preserveAspectRatio="xMidYMid meet">
<metadata>
Created by potrace 1.11, written by Peter Selinger 2001-2013
</metadata>
<g transform="translate(0.000000,700.000000) scale(0.100000,-0.100000)"
fill="#000000" stroke="none">
<path d="M3161 6619 c-386 -28 -683 -176 -903 -449 l-37 -45 16 -100 c13 -80
17 -209 19 -635 2 -294 5 -546 6 -559 2 -19 -3 -26 -27 -34 -96 -31 -394 -146
-474 -183 -118 -55 -245 -139 -300 -199 -46 -50 -88 -132 -74 -145 10 -10 308
-46 487 -60 71 -6 266 -10 433 -10 l305 0 75 66 c41 36 105 85 143 110 l68 45
-40 97 c-51 126 -111 324 -100 331 5 3 60 43 123 87 432 308 820 469 1246 519
129 15 493 21 566 8 36 -5 38 -8 33 -32 -14 -57 -18 -372 -7 -501 11 -132 50
-452 55 -457 6 -6 269 48 346 72 326 98 485 189 555 316 28 51 30 61 30 164 0
78 -5 127 -18 170 l-19 60 -81 34 c-234 99 -535 263 -722 394 -309 216 -590
508 -775 807 -29 47 -54 86 -55 88 -5 5 -494 40 -630 45 -71 2 -181 0 -244 -4z"/>
<path d="M1930 3620 c-746 -133 -815 -151 -980 -258 -30 -20 -59 -35 -63 -34
-14 4 -62 -26 -93 -60 -63 -66 -133 -183 -342 -568 l-100 -184 48 -71 c26 -38
183 -267 348 -508 l301 -439 -6 -133 -6 -134 56 -75 c125 -166 272 -294 430
-377 131 -68 179 -82 287 -80 128 2 324 -13 625 -50 292 -35 518 -46 625 -30
78 11 58 12 841 -57 l196 -17 339 94 339 93 95 -23 c256 -63 424 -13 697 208
68 55 104 103 544 733 259 371 473 680 476 686 7 18 -111 245 -185 354 -171
255 -408 470 -777 704 l-120 77 -20 61 c-19 55 -26 64 -70 89 -60 34 -162 61
-212 57 l-36 -3 -19 -108 c-54 -324 -209 -592 -434 -753 -209 -150 -512 -222
-816 -196 -613 52 -1214 403 -1412 823 -34 71 -66 174 -66 210 0 13 -14 20
-50 28 -28 6 -52 11 -53 10 -1 0 -175 -32 -387 -69z"/>
</g>
</svg>
