<svg version="1.1" viewBox="0 0 48 48" xmlns="http://www.w3.org/2000/svg">
	<rect width="48" height="48" fill="#b70c0c" fill-rule="evenodd"/>
	<path d="m38.609 8.063h-2.6562v3.9843c0 .74373-.58436 1.3281-1.3281 1.3281h-5.3123c-.74373 0-1.3281-.58436-1.3281-1.3281v-3.9843h-7.9685v3.9843c0 .74373-.58436 1.3281-1.3281 1.3281h-5.3123c-.74373 0-1.3281-.58436-1.3281-1.3281v-3.9843h-2.6562c-1.4609 0-2.6562 1.1953-2.6562 2.6562v29.218c0 1.4609 1.1953 2.6562 2.6562 2.6562h29.218c1.4609 0 2.6562-1.1953 2.6562-2.6562v-29.218c0-1.4609-1.1953-2.6562-2.6562-2.6562zm0 31.874h-29.218v-23.906h29.218zm-21.249-29.218h-2.6562v-5.3123h2.6562zm15.937 0h-2.6562v-5.3123h2.6562zm-13.281 10.625h-2.6562v-2.6562h2.6562zm5.3123 0h-2.6562v-2.6562h2.6562zm5.3123 0h-2.6562v-2.6562h2.6562zm5.3123 0h-2.6562v-2.6562h2.6562zm-21.249 5.3123h-2.6562v-2.6562h2.6562zm5.3123 0h-2.6562v-2.6562h2.6562zm5.3123 0h-2.6562v-2.6562h2.6562zm5.3123 0h-2.6562v-2.6562h2.6562zm5.3123 0h-2.6562v-2.6562h2.6562zm-21.249 5.3123h-2.6562v-2.6562h2.6562zm5.3123 0h-2.6562v-2.6562h2.6562zm5.3123 0h-2.6562v-2.6562h2.6562zm5.3123 0h-2.6562v-2.6562h2.6562zm5.3123 0h-2.6562v-2.6562h2.6562zm-21.249 5.3123h-2.6562v-2.6562h2.6562zm5.3123 0h-2.6562v-2.6562h2.6562zm5.3123 0h-2.6562v-2.6562h2.6562zm5.3123 0h-2.6562v-2.6562h2.6562z" fill="#fafafa" fill-rule="evenodd"/>
</svg>
