<?xml version="1.0" encoding="UTF-8"?>
<svg version="1.1" viewBox="0 0 48 48" xmlns="http://www.w3.org/2000/svg">
 <rect width="48" height="48" fill="#b70c0c" fill-rule="evenodd"/>
 <path d="m28.5 6c-0.3825 0-0.81 0.12857-1.17 0.36-3.24 2.2629-11.205 8.8457-14.58 9.9257-3.105 0-6.75 1.7229-6.75 6.4286 0 4.7057 3.6675 6.4286 6.75 6.4286 0.675 0.20571 1.44 0.59143 2.25 1.0543v11.803h4.5v-8.8714c3.015 2.2114 6.0525 4.7057 7.83 5.94 0.36 0.23143 0.765 0.36 1.17 0.36 1.17 0 2.25-1.08 2.25-2.5714v-28.286c0-1.4914-1.08-2.5714-2.25-2.5714zm0 30.857c-0.855-0.59143-2.0025-1.4914-3.375-2.5714-0.36-0.28286-0.7425-0.56571-1.125-0.87428v-21.471c0.36-0.28286 0.6975-0.51429 1.0575-0.79714 1.3725-1.0543 2.61-1.98 3.4425-2.5714zm4.5-15.429h9v2.5714h-9zm0 5.1429 9 5.1429v2.5714l-9-5.1429zm9-15.429v2.5714l-9 5.1429v-2.5714z" fill="#fafafa" fill-rule="evenodd" stroke-width="2.4054"/>
</svg>
